<?xml version="1.0" encoding="UTF-8"?>
<svg xmlns="http://www.w3.org/2000/svg" xmlns:xlink="http://www.w3.org/1999/xlink" width="40px" height="40px" viewBox="0 0 40 40" version="1.1">
<g id="surface1">
<path style=" stroke:none;fill-rule:nonzero;fill:rgb(100%,100%,100%);fill-opacity:1;" d="M 20 40 C 31.046875 40 40 31.046875 40 20 C 40 8.953125 31.046875 0 20 0 C 8.953125 0 0 8.953125 0 20 C 0 31.046875 8.953125 40 20 40 Z M 20 2.738281 C 29.53125 2.738281 37.261719 10.464844 37.261719 20 C 37.261719 29.53125 29.535156 37.261719 20 37.261719 C 10.464844 37.261719 2.738281 29.53125 2.738281 20 C 2.738281 10.46875 10.46875 2.738281 20 2.738281 Z M 20 2.738281 "/>
<path style=" stroke:none;fill-rule:nonzero;fill:rgb(100%,100%,100%);fill-opacity:1;" d="M 20 34.496094 C 28.007812 34.496094 34.496094 28.007812 34.496094 20 C 34.496094 11.992188 28.007812 5.503906 20 5.503906 C 11.992188 5.503906 5.503906 11.992188 5.503906 20 C 5.503906 28.007812 11.992188 34.496094 20 34.496094 Z M 11.730469 22.621094 C 13.039062 22.621094 13.695312 23.929688 13.695312 23.929688 C 14.84375 25.882812 16.890625 25.566406 17.625 25.238281 C 17.625 24.585938 17.910156 23.59375 18.28125 23.273438 C 15.417969 22.953125 13.039062 21.308594 13.039062 18.035156 C 13.039062 14.761719 13.695312 14.105469 14.351562 13.449219 C 14.21875 13.128906 13.671875 11.933594 14.371094 10.175781 C 14.371094 10.175781 15.65625 10.175781 16.96875 12.140625 C 17.617188 11.492188 19.585938 11.484375 20.242188 11.484375 C 20.894531 11.484375 22.867188 11.492188 23.515625 12.140625 C 24.828125 10.175781 26.117188 10.175781 26.117188 10.175781 C 26.816406 11.933594 26.269531 13.128906 26.136719 13.449219 C 26.792969 14.105469 27.445312 14.761719 27.445312 18.035156 C 27.445312 21.308594 25.066406 22.953125 22.207031 23.273438 C 22.574219 23.59375 22.859375 24.722656 22.859375 25.238281 L 22.859375 29.824219 L 17.625 29.824219 C 17.625 29.824219 17.632812 28.269531 17.625 27.203125 C 14.039062 27.976562 13.039062 25.238281 13.039062 25.238281 C 12.386719 23.929688 11.730469 23.273438 11.730469 23.273438 C 10.421875 22.496094 11.730469 22.621094 11.730469 22.621094 Z M 11.730469 22.621094 "/>
</g>
</svg>
