<?xml version="1.0" encoding="UTF-8"?>
<svg xmlns="http://www.w3.org/2000/svg" xmlns:xlink="http://www.w3.org/1999/xlink" width="40px" height="40px" viewBox="0 0 40 40" version="1.1">
<g id="surface1">
<path style=" stroke:none;fill-rule:nonzero;fill:rgb(100%,100%,100%);fill-opacity:1;" d="M 20 40 C 31.046875 40 40 31.046875 40 20 C 40 8.953125 31.046875 0 20 0 C 8.953125 0 0 8.953125 0 20 C 0 31.046875 8.953125 40 20 40 Z M 20 2.738281 C 29.53125 2.738281 37.261719 10.464844 37.261719 20 C 37.261719 29.535156 29.53125 37.261719 20 37.261719 C 10.46875 37.261719 2.738281 29.53125 2.738281 20 C 2.738281 10.46875 10.46875 2.738281 20 2.738281 Z M 20 2.738281 "/>
<path style=" stroke:none;fill-rule:nonzero;fill:rgb(100%,100%,100%);fill-opacity:1;" d="M 20 34.496094 C 28.007812 34.496094 34.496094 28.007812 34.496094 20 C 34.496094 11.992188 28.007812 5.503906 20 5.503906 C 11.992188 5.503906 5.503906 11.992188 5.503906 20 C 5.503906 28.007812 11.992188 34.496094 20 34.496094 Z M 15.378906 26.84375 L 11.746094 26.84375 L 11.746094 15.921875 L 15.378906 15.921875 Z M 17.386719 15.921875 L 21.015625 15.921875 L 21.015625 17.46875 C 21.496094 16.726562 22.359375 15.664062 24.289062 15.664062 C 26.675781 15.664062 28.464844 17.226562 28.464844 20.582031 L 28.464844 26.84375 L 24.835938 26.84375 L 24.835938 21 C 24.835938 19.53125 24.3125 18.53125 23 18.53125 C 21.996094 18.53125 21.398438 19.207031 21.136719 19.859375 C 21.042969 20.089844 21.015625 20.417969 21.015625 20.742188 L 21.015625 26.84375 L 17.386719 26.84375 C 17.386719 26.84375 17.433594 16.945312 17.386719 15.921875 Z M 13.585938 10.65625 C 14.828125 10.65625 15.59375 11.472656 15.617188 12.542969 C 15.617188 13.589844 14.828125 14.429688 13.5625 14.429688 L 13.539062 14.429688 C 12.320312 14.429688 11.535156 13.589844 11.535156 12.542969 C 11.53125 11.472656 12.34375 10.65625 13.585938 10.65625 Z M 13.585938 10.65625 "/>
</g>
</svg>
