<?xml version="1.0" encoding="UTF-8"?>
<svg xmlns="http://www.w3.org/2000/svg" xmlns:xlink="http://www.w3.org/1999/xlink" width="40px" height="40px" viewBox="0 0 40 40" version="1.1">
<g id="surface1">
<path style=" stroke:none;fill-rule:nonzero;fill:rgb(100%,100%,100%);fill-opacity:1;" d="M 20 0 C 8.953125 0 0 8.953125 0 20 C 0 31.046875 8.953125 40 20 40 C 31.046875 40 40 31.046875 40 20 C 40 8.953125 31.046875 0 20 0 Z M 20 37.261719 C 10.46875 37.261719 2.738281 29.53125 2.738281 20 C 2.738281 10.46875 10.46875 2.738281 20 2.738281 C 29.53125 2.738281 37.261719 10.46875 37.261719 20 C 37.261719 29.53125 29.53125 37.261719 20 37.261719 Z M 20 37.261719 "/>
<path style=" stroke:none;fill-rule:nonzero;fill:rgb(100%,100%,100%);fill-opacity:1;" d="M 20 5.503906 C 11.992188 5.503906 5.503906 11.992188 5.503906 20 C 5.503906 28.007812 11.992188 34.496094 20 34.496094 C 28.007812 34.496094 34.496094 28.007812 34.496094 20 C 34.496094 11.992188 28.007812 5.503906 20 5.503906 Z M 21.550781 24.476562 C 20.304688 24.476562 19.132812 23.800781 18.730469 23.035156 C 18.730469 23.035156 18.0625 25.695312 17.921875 26.210938 C 17.421875 28.023438 15.949219 29.839844 15.835938 29.988281 C 15.757812 30.089844 15.582031 30.058594 15.5625 29.921875 C 15.53125 29.691406 15.15625 27.402344 15.597656 25.535156 L 17.082031 19.242188 C 17.082031 19.242188 16.714844 18.503906 16.714844 17.417969 C 16.714844 15.703125 17.703125 14.425781 18.941406 14.425781 C 19.988281 14.425781 20.496094 15.214844 20.496094 16.160156 C 20.496094 17.214844 19.824219 18.796875 19.476562 20.257812 C 19.1875 21.480469 20.089844 22.480469 21.300781 22.480469 C 23.488281 22.480469 24.960938 19.671875 24.960938 16.339844 C 24.960938 13.8125 23.257812 11.917969 20.15625 11.917969 C 16.65625 11.917969 14.472656 14.527344 14.472656 17.445312 C 14.472656 18.453125 14.769531 19.164062 15.234375 19.710938 C 15.449219 19.960938 15.480469 20.0625 15.402344 20.355469 C 15.34375 20.566406 15.21875 21.078125 15.164062 21.28125 C 15.089844 21.574219 14.851562 21.675781 14.585938 21.570312 C 12.976562 20.910156 12.222656 19.144531 12.222656 17.15625 C 12.222656 13.878906 14.988281 9.945312 20.476562 9.945312 C 24.882812 9.945312 27.785156 13.132812 27.785156 16.558594 C 27.78125 21.09375 25.261719 24.476562 21.550781 24.476562 Z M 21.550781 24.476562 "/>
</g>
</svg>
