<?xml version="1.0" encoding="UTF-8"?>
<svg xmlns="http://www.w3.org/2000/svg" xmlns:xlink="http://www.w3.org/1999/xlink" width="40px" height="40px" viewBox="0 0 40 40" version="1.1">
<g id="surface1">
<path style=" stroke:none;fill-rule:nonzero;fill:rgb(100%,100%,100%);fill-opacity:1;" d="M 20 40 C 31.046875 40 40 31.046875 40 20 C 40 8.953125 31.046875 0 20 0 C 8.953125 0 0 8.953125 0 20 C 0 31.046875 8.953125 40 20 40 Z M 20 2.738281 C 29.53125 2.738281 37.261719 10.464844 37.261719 20 C 37.261719 29.535156 29.53125 37.261719 20 37.261719 C 10.46875 37.261719 2.738281 29.53125 2.738281 20 C 2.738281 10.46875 10.46875 2.738281 20 2.738281 Z M 20 2.738281 "/>
<path style=" stroke:none;fill-rule:nonzero;fill:rgb(100%,100%,100%);fill-opacity:1;" d="M 20 34.496094 C 28.007812 34.496094 34.496094 28.007812 34.496094 20 C 34.496094 11.992188 28.007812 5.503906 20 5.503906 C 11.992188 5.503906 5.503906 11.992188 5.503906 20 C 5.503906 28.007812 11.992188 34.496094 20 34.496094 Z M 15.828125 24.007812 C 14.699219 23.617188 13.683594 22.722656 13.429688 21.878906 C 13.351562 21.609375 13.378906 21.59375 14.09375 21.59375 L 14.839844 21.582031 L 14.210938 21.28125 C 13.464844 20.90625 12.785156 20.269531 12.453125 19.621094 C 12.207031 19.15625 11.902344 17.976562 11.992188 17.882812 C 12.015625 17.84375 12.285156 17.921875 12.59375 18.027344 C 13.480469 18.351562 13.59375 18.273438 13.082031 17.726562 C 12.121094 16.742188 11.824219 15.277344 12.285156 13.886719 L 12.503906 13.265625 L 13.351562 14.109375 C 15.082031 15.808594 17.121094 16.820312 19.457031 17.117188 L 20.097656 17.195312 L 20.058594 16.558594 C 19.945312 14.910156 20.957031 13.40625 22.558594 12.824219 C 23.148438 12.617188 24.152344 12.589844 24.804688 12.769531 C 25.0625 12.847656 25.550781 13.109375 25.894531 13.339844 L 26.523438 13.769531 L 27.21875 13.546875 C 27.601562 13.433594 28.117188 13.238281 28.347656 13.109375 C 28.566406 12.988281 28.757812 12.925781 28.757812 12.964844 C 28.757812 13.183594 28.28125 13.9375 27.886719 14.351562 C 27.34375 14.9375 27.5 14.988281 28.589844 14.597656 C 29.242188 14.378906 29.257812 14.378906 29.128906 14.625 C 29.050781 14.753906 28.652344 15.207031 28.230469 15.625 C 27.511719 16.335938 27.472656 16.414062 27.472656 17.011719 C 27.472656 17.929688 27.039062 19.851562 26.601562 20.902344 C 25.792969 22.875 24.0625 24.910156 22.328125 25.933594 C 19.890625 27.375 16.644531 27.738281 13.914062 26.894531 C 13.003906 26.609375 11.4375 25.882812 11.4375 25.753906 C 11.4375 25.714844 11.910156 25.664062 12.488281 25.648438 C 13.699219 25.625 14.878906 25.292969 15.925781 24.691406 L 16.621094 24.273438 Z M 15.828125 24.007812 "/>
</g>
</svg>
