<?xml version="1.0" encoding="UTF-8"?>
<svg xmlns="http://www.w3.org/2000/svg" xmlns:xlink="http://www.w3.org/1999/xlink" width="40px" height="40px" viewBox="0 0 40 40" version="1.1">
<g id="surface1">
<path style=" stroke:none;fill-rule:nonzero;fill:rgb(100%,100%,100%);fill-opacity:1;" d="M 20 0 C 8.953125 0 0 8.953125 0 20 C 0 31.046875 8.953125 40 20 40 C 31.046875 40 40 31.046875 40 20 C 40 8.953125 31.046875 0 20 0 Z M 20 37.261719 C 10.46875 37.261719 2.738281 29.53125 2.738281 20 C 2.738281 10.46875 10.46875 2.738281 20 2.738281 C 29.53125 2.738281 37.261719 10.46875 37.261719 20 C 37.261719 29.53125 29.53125 37.261719 20 37.261719 Z M 20 37.261719 "/>
<path style=" stroke:none;fill-rule:nonzero;fill:rgb(100%,100%,100%);fill-opacity:1;" d="M 20.6875 11.109375 C 17.757812 11.105469 15.09375 12.8125 13.875 15.476562 C 12.652344 18.136719 13.097656 21.269531 15.015625 23.488281 L 13.988281 26.085938 L 16.269531 24.636719 C 17.546875 25.585938 19.097656 26.09375 20.6875 26.085938 C 24.824219 26.085938 28.164062 22.726562 28.164062 18.589844 C 28.167969 16.605469 27.378906 14.699219 25.976562 13.296875 C 24.574219 11.894531 22.671875 11.105469 20.6875 11.109375 Z M 25.425781 21.71875 C 25.355469 22.089844 24.46875 22.886719 23.78125 23.046875 C 22.296875 23.382812 20.195312 22.195312 18.832031 20.941406 C 17.472656 19.703125 16.109375 17.703125 16.304688 16.199219 C 16.394531 15.511719 17.117188 14.554688 17.472656 14.429688 C 17.628906 14.394531 17.859375 14.394531 18.074219 14.394531 C 18.320312 14.414062 18.53125 14.429688 18.601562 14.574219 L 19.398438 16.640625 C 19.449219 16.800781 19.328125 16.980469 19.167969 17.171875 C 18.9375 17.4375 18.902344 17.457031 18.691406 17.738281 C 18.582031 17.882812 18.65625 18.058594 18.691406 18.128906 C 18.921875 18.675781 19.449219 19.296875 19.925781 19.738281 C 20.421875 20.179688 21.078125 20.65625 21.640625 20.851562 C 21.675781 20.851562 21.890625 20.941406 22.046875 20.902344 C 22.191406 20.886719 22.277344 20.78125 22.402344 20.621094 C 22.632812 20.335938 22.722656 20.234375 22.914062 19.96875 C 23.074219 19.773438 23.234375 19.703125 23.390625 19.789062 L 25.195312 20.621094 C 25.335938 20.691406 25.390625 20.867188 25.40625 21.117188 C 25.441406 21.328125 25.460938 21.558594 25.425781 21.71875 Z M 25.425781 21.71875 "/>
<path style=" stroke:none;fill-rule:nonzero;fill:rgb(100%,100%,100%);fill-opacity:1;" d="M 20 5.503906 C 11.992188 5.503906 5.503906 11.992188 5.503906 20 C 5.503906 28.007812 11.992188 34.496094 20 34.496094 C 28.007812 34.496094 34.496094 28.007812 34.496094 20 C 34.496094 11.992188 28.007812 5.503906 20 5.503906 Z M 20.6875 27.960938 C 19.183594 27.960938 17.707031 27.597656 16.375 26.902344 L 11.320312 29.203125 L 12.734375 23.542969 C 11.808594 22.054688 11.320312 20.339844 11.320312 18.589844 C 11.320312 13.425781 15.507812 9.234375 20.6875 9.234375 C 25.851562 9.238281 30.039062 13.425781 30.039062 18.589844 C 30.039062 23.769531 25.847656 27.960938 20.6875 27.960938 Z M 20.6875 27.960938 "/>
</g>
</svg>
